<?xml version="1.0" encoding="UTF-8"?>
<svg xmlns="http://www.w3.org/2000/svg" xmlns:se="https://standardebooks.org/vocab/1.0" version="1.1" viewBox="0 0 1400 770" se:generated-from="ff8ecf7e9da1d641b31661566cfd617ef3e79cb6">
	<path d="m 360.14181,68.245613 18.33918,0 0,61.754387 17.59064,0 0,-61.754387 18.33918,0 0,-15.438597 -54.269,0 0,15.438597 z"/>
	<path d="m 443.33625,99.029239 24.88889,0 0,30.970761 17.59065,0 0,-77.192984 -17.59065,0 0,30.783626 -24.88889,0 0,-30.783626 -17.59064,0 0,77.192984 17.59064,0 0,-30.970761 z"/>
	<path d="m 546.18129,52.807016 -44.16375,0 0,77.192984 44.16375,0 0,-15.4386 -26.5731,0 0,-15.532161 25.45029,0 0,-15.438597 -25.45029,0 0,-15.345029 26.5731,0 0,-15.438597 z"/>
	<path d="m 609.4693,52.807016 -17.59064,0 0,77.192984 44.16374,0 0,-15.4386 -26.5731,0 0,-61.754384 z"/>
	<path d="m 709.01461,52.807016 -17.59064,0 0,44.63158 c 0,12.912284 -3.92983,16.654974 -12.53801,16.654974 -8.60819,0 -12.53802,-3.74269 -12.53802,-16.654974 l 0,-44.63158 -17.59064,0 0,49.777774 c 0,19.08772 10.47953,28.81872 30.12866,28.81872 19.64912,0 30.12865,-9.731 30.12865,-28.81872 l 0,-49.777774 z"/>
	<path d="m 762.47221,114.09357 c -17.68421,0 -25.45029,-12.35088 -25.45029,-22.736846 0,-10.292397 7.76608,-22.643275 25.45029,-22.643275 8.98246,0 15.1579,4.77193 15.1579,4.77193 l 7.48538,-14.97076 c 0,0 -8.60819,-7.111112 -25.35673,-7.111112 -21.89473,0 -41.82456,17.964913 -41.82456,40.140352 0,22.081871 20.02339,39.859651 41.82456,39.859651 16.74854,0 25.35673,-7.11111 25.35673,-7.11111 l -7.48538,-14.97076 c 0,0 -6.17544,4.77193 -15.1579,4.77193 z"/>
	<path d="m 867.20615,130 -35.92982,-40.608188 31.06432,-36.584796 -21.33333,0 -26.47953,31.532164 0,-31.532164 -17.59065,0 0,77.192984 17.59065,0 0,-32.748539 L 842.97223,130 l 24.23392,0 z"/>
	<path d="m 902.70761,91.356724 c 0,22.549706 16.09357,40.046786 38.92398,40.046786 22.17543,0 38.83041,-17.49708 38.83041,-40.046786 0,-22.549708 -17.40351,-39.953217 -38.83041,-39.953217 -21.23977,0 -38.92398,17.403509 -38.92398,39.953217 z m 18.99415,0 c 0,-11.508772 6.36257,-23.017544 19.92983,-23.017544 13.66081,0 19.83625,11.508772 19.83625,23.017544 0,11.508776 -5.80117,23.017546 -19.83625,23.017546 -14.40936,0 -19.92983,-11.50877 -19.92983,-23.017546 z"/>
	<path d="m 1037.8553,52.807016 -44.63163,0 0,77.192984 17.59063,0 0,-30.970761 24.9825,0 0,-15.438597 -24.9825,0 0,-15.345029 27.041,0 0,-15.438597 z"/>
	<path d="m 291.05262,152.80702 0,77.19298 29.28656,0 c 16,0 25.26315,-8.79532 25.26315,-21.52047 0,-12.44444 -6.83041,-17.77778 -16.46783,-19.46199 6.5497,-3.36842 9.63742,-9.45029 9.63742,-16.5614 0,-14.69006 -10.47953,-19.64912 -23.76608,-19.64912 l -23.95322,0 z m 17.59065,30.22222 0,-16.65497 1.40351,0 c 7.67251,0 11.6959,2.33918 11.6959,7.85965 0,6.45614 -4.11696,8.79532 -11.6959,8.79532 l -1.40351,0 z m 0,33.40351 0,-18.24562 5.52047,0 c 8.32748,0 12.91228,2.52632 12.91228,9.63743 0,6.08187 -4.5848,8.60819 -12.91228,8.60819 l -5.52047,0 z"/>
	<path d="m 395.74707,152.80702 -16.2807,0 L 348.30848,230 l 18.90058,0 5.7076,-15.4386 29.38012,0 5.7076,15.4386 18.90059,0 -31.1579,-77.19298 z m 0.56141,46.31579 -17.40351,0 8.60818,-22.45614 0.18714,0 8.60819,22.45614 z"/>
	<path d="m 434.82457,152.80702 0,77.19298 17.59064,0 0,-30.50292 23.57895,30.50292 22.36257,0 -26.5731,-31.90643 c 9.45029,-2.99416 15.81287,-10.76024 15.81287,-22.36258 0,-15.15789 -10.8538,-22.92397 -25.16959,-22.92397 l -27.60234,0 z m 17.59064,34.24561 0,-20.21053 2.05848,0 c 6.64328,0 14.59649,0.46784 14.59649,10.10527 0,9.63742 -7.95321,10.10526 -14.59649,10.10526 l -2.05848,0 z"/>
	<path d="m 506.89328,152.80702 0,77.19298 17.59064,0 0,-30.50292 23.57895,30.50292 22.36257,0 -26.5731,-31.90643 c 9.45029,-2.99416 15.81287,-10.76024 15.81287,-22.36258 0,-15.15789 -10.8538,-22.92397 -25.16959,-22.92397 l -27.60234,0 z m 17.59064,34.24561 0,-20.21053 2.05848,0 c 6.64328,0 14.59649,0.46784 14.59649,10.10527 0,9.63742 -7.95321,10.10526 -14.59649,10.10526 l -2.05848,0 z"/>
	<path d="m 562.1345,152.80702 28.44445,42.5731 0,34.61988 17.59064,0 0,-34.61988 28.44445,-42.5731 -21.1462,0 -16.09357,24.70175 -16.09357,-24.70175 -21.1462,0 z"/>
	<path d="m 692.62719,152.80702 -17.59065,0 0,77.19298 44.16375,0 0,-15.4386 -26.5731,0 0,-61.75438 z"/>
	<path d="m 717.11988,152.80702 28.44445,42.5731 0,34.61988 17.59064,0 0,-34.61988 28.44445,-42.5731 -21.1462,0 -16.09357,24.70175 -16.09357,-24.70175 -21.1462,0 z"/>
	<path d="m 817.02779,182.09357 0.18713,0 30.69006,47.90643 17.59065,0 0,-77.19298 -17.59065,0 0,47.90643 -0.18713,0 -30.69006,-47.90643 -17.59064,0 0,77.19298 17.59064,0 0,-47.90643 z"/>
	<path d="m 881.73976,152.80702 0,77.19298 22.36257,0 c 21.23977,0 38.92398,-16.09357 38.92398,-38.64328 0,-22.45614 -17.77778,-38.5497 -38.92398,-38.5497 l -22.36257,0 z m 17.59064,61.47368 0,-45.75439 2.71345,0 c 13.09942,0 21.98831,10.0117 21.98831,22.92398 -0.0936,12.91228 -8.98246,22.83041 -21.98831,22.83041 l -2.71345,0 z"/>
	<path d="m 952.35675,191.35672 c 0,22.54971 16.09357,40.04679 38.92398,40.04679 22.17547,0 38.83037,-17.49708 38.83037,-40.04679 0,-22.5497 -17.4035,-39.95321 -38.83037,-39.95321 -21.23977,0 -38.92398,17.40351 -38.92398,39.95321 z m 18.99415,0 c 0,-11.50877 6.36258,-23.01754 19.92983,-23.01754 13.66077,0 19.83627,11.50877 19.83627,23.01754 0,11.50878 -5.8012,23.01755 -19.83627,23.01755 -14.40936,0 -19.92983,-11.50877 -19.92983,-23.01755 z"/>
	<path d="m 1060.4635,182.09357 0.1871,0 30.6901,47.90643 17.5906,0 0,-77.19298 -17.5906,0 0,47.90643 -0.1872,0 -30.69,-47.90643 -17.5907,0 0,77.19298 17.5907,0 0,-47.90643 z"/>
	<path d="m 312.04441,390 14.59649,0 16.49123,-57.89474 -14.59649,0 -9.89474,39.7193 -0.35087,0 -10.52632,-39.7193 -9.96491,0 -10.52632,39.7193 -0.35088,0 -9.89473,-39.7193 -14.66667,0 L 278.85143,390 293.5181,390 302.78125,357.50877 312.04441,390 Z"/>
	<path d="m 364.48959,332.10526 -13.19298,0 0,57.89474 13.19298,0 0,-57.89474 z"/>
	<path d="m 391.14529,332.10526 -13.19298,0 0,57.89474 33.1228,0 0,-11.57895 -19.92982,0 0,-46.31579 z"/>
	<path d="m 435.75604,332.10526 -13.19298,0 0,57.89474 33.1228,0 0,-11.57895 -19.92982,0 0,-46.31579 z"/>
	<path d="m 480.36679,332.10526 -13.19299,0 0,57.89474 13.19299,0 0,-57.89474 z"/>
	<path d="m 523.23301,332.10526 -12.21052,0 L 487.65407,390 l 14.17544,0 4.2807,-11.57895 22.03508,0 L 532.426,390 l 14.17543,0 -23.36842,-57.89474 z m 0.42106,34.73685 -13.05264,0 6.45615,-16.84211 0.14035,0 6.45614,16.84211 z"/>
	<path d="m 601.65076,390 13.19299,0 -5.19299,-57.89474 -14.03508,0 -12.84211,33.40351 -12.84211,-33.40351 -14.03508,0 -5.19299,57.89474 13.19299,0 2.73684,-34.31579 0.35088,0 11.85965,33.96491 7.85964,0 11.85965,-33.96491 0.35088,0 L 601.65076,390 Z"/>
	<path d="m 697.17707,390 13.19298,0 -5.19298,-57.89474 -14.03509,0 -12.8421,33.40351 -12.84211,-33.40351 -14.03509,0 L 646.2297,390 l 13.19298,0 2.73685,-34.31579 0.35087,0 11.85965,33.96491 7.85965,0 11.85965,-33.96491 0.35088,0 L 697.17707,390 Z"/>
	<path d="m 750.05867,332.10526 -12.21053,0 L 714.47972,390 l 14.17544,0 4.2807,-11.57895 22.03509,0 4.2807,11.57895 14.17544,0 -23.36842,-57.89474 z m 0.42105,34.73685 -13.05263,0 6.45614,-16.84211 0.14035,0 6.45614,16.84211 z"/>
	<path d="m 833.31852,390 -26.94737,-30.45614 23.29825,-27.4386 -16,0 -19.85965,23.64913 0,-23.64913 -13.19298,0 0,57.89474 13.19298,0 0,-24.5614 21.33333,24.5614 18.17544,0 z"/>
	<path d="m 873.97535,332.10526 -33.1228,0 0,57.89474 33.1228,0 0,-11.57895 -19.92982,0 0,-11.64912 19.08772,0 0,-11.57895 -19.08772,0 0,-11.50877 19.92982,0 0,-11.57895 z"/>
	<path d="m 886.55976,332.10526 0,57.89474 13.19298,0 0,-21.47368 7.92983,0 c 11.29824,0 19.78947,-6.66667 19.78947,-18.5965 0,-11.99999 -8.49123,-17.82456 -19.78947,-17.82456 l -21.12281,0 z M 899.75274,358 l 0,-15.36842 3.7193,0 c 5.19298,0 10.10526,1.75439 10.10526,7.7193 0,5.89473 -4.91228,7.64912 -10.10526,7.64912 l -3.7193,0 z"/>
	<path d="m 971.42048,332.10526 -33.1228,0 0,57.89474 33.1228,0 0,-11.57895 -19.92982,0 0,-11.64912 19.08772,0 0,-11.57895 -19.08772,0 0,-11.50877 19.92982,0 0,-11.57895 z"/>
	<path d="m 1013.8196,332.10526 -12.2105,0 L 978.24065,390 l 14.17543,0 4.28071,-11.57895 22.03511,0 4.2807,11.57895 14.1754,0 -23.3684,-57.89474 z m 0.421,34.73685 -13.0526,0 6.4562,-16.84211 0.1403,0 6.4561,16.84211 z"/>
	<path d="m 1072.9918,378.07018 c -13.2632,0 -19.0877,-9.26316 -19.0877,-17.05264 0,-7.71929 5.8245,-16.98245 19.0877,-16.98245 6.7368,0 11.3684,3.57895 11.3684,3.57895 l 5.614,-11.22807 c 0,0 -6.4561,-5.33334 -19.0175,-5.33334 -16.4211,0 -31.3684,13.47369 -31.3684,30.10527 0,16.5614 15.0175,29.89473 31.3684,29.89473 12.5614,0 19.0175,-5.33333 19.0175,-5.33333 l -5.614,-11.22807 c 0,0 -4.6316,3.57895 -11.3684,3.57895 z"/>
	<path d="m 1133.2133,332.10526 -33.1228,0 0,57.89474 33.1228,0 0,-11.57895 -19.9299,0 0,-11.64912 19.0878,0 0,-11.57895 -19.0878,0 0,-11.50877 19.9299,0 0,-11.57895 z"/>
	<path d="m 456.80866,423.68421 13.75439,0 0,46.31579 13.19298,0 0,-46.31579 13.75439,0 0,-11.57895 -40.70176,0 0,11.57895 z"/>
	<path d="m 520.4545,446.77193 18.66666,0 0,23.22807 13.19298,0 0,-57.89474 -13.19298,0 0,23.08772 -18.66666,0 0,-23.08772 -13.19299,0 0,57.89474 13.19299,0 0,-23.22807 z"/>
	<path d="m 595.11897,412.10526 -12.21053,0 L 559.54002,470 l 14.17544,0 4.2807,-11.57895 22.03509,0 4.2807,11.57895 14.17544,0 -23.36842,-57.89474 z m 0.42105,34.73685 -13.05263,0 6.45614,-16.84211 0.14035,0 6.45614,16.84211 z"/>
	<path d="m 654.29111,458.07018 c -13.26316,0 -19.08772,-9.26316 -19.08772,-17.05264 0,-7.71929 5.82456,-16.98245 19.08772,-16.98245 6.73684,0 11.36842,3.57895 11.36842,3.57895 l 5.61404,-11.22807 c 0,0 -6.45614,-5.33334 -19.01755,-5.33334 -16.42105,0 -31.36842,13.47369 -31.36842,30.10527 0,16.5614 15.01755,29.89473 31.36842,29.89473 12.56141,0 19.01755,-5.33333 19.01755,-5.33333 l -5.61404,-11.22807 c 0,0 -4.63158,3.57895 -11.36842,3.57895 z"/>
	<path d="m 734.09155,470 -26.94737,-30.45614 23.29825,-27.4386 -16,0 -19.85965,23.64913 0,-23.64913 -13.19299,0 0,57.89474 13.19299,0 0,-24.5614 21.33333,24.5614 18.17544,0 z"/>
	<path d="m 774.74835,412.10526 -33.12281,0 0,57.89474 33.12281,0 0,-11.57895 -19.92983,0 0,-11.64912 19.08772,0 0,-11.57895 -19.08772,0 0,-11.50877 19.92983,0 0,-11.57895 z"/>
	<path d="m 787.33279,412.10526 0,57.89474 13.19298,0 0,-22.87719 17.68421,22.87719 16.77193,0 -19.92982,-23.92982 c 7.08771,-2.24562 11.85964,-8.07018 11.85964,-16.77193 0,-11.36842 -8.14035,-17.19299 -18.87719,-17.19299 l -20.70175,0 z m 13.19298,25.68421 0,-15.15789 1.54386,0 c 4.98246,0 10.94737,0.35088 10.94737,7.57895 0,7.22807 -5.96491,7.57894 -10.94737,7.57894 l -1.54386,0 z"/>
	<path d="m 872.03781,412.10526 -12.21053,0 L 836.45886,470 l 14.17544,0 4.2807,-11.57895 22.03509,0 4.2807,11.57895 14.17544,0 -23.36842,-57.89474 z m 0.42105,34.73685 -13.05263,0 6.45614,-16.84211 0.14035,0 6.45614,16.84211 z"/>
	<path d="m 889.97531,412.10526 21.33333,31.92983 0,25.96491 13.19299,0 0,-25.96491 21.33333,-31.92983 -15.85965,0 -12.07017,18.52632 -12.07018,-18.52632 -15.85965,0 z"/>
	<path d="m 604.35574,666.63124 c 0,0.68013 0.80765,1.02019 1.53029,1.02019 0.89267,0 3.69819,-0.5526 5.356,-4.54835 0.42508,-1.02019 0.85016,-3.61318 1.19023,-6.46121 0.5526,-4.42083 0.97768,-9.6068 1.19022,-11.51966 0.085,-0.68013 0,-1.0627 0.76514,-1.0627 1.14772,0 1.91286,0.085 3.57067,0.085 0.72264,0 0.85016,-0.72264 0.85016,-1.14772 0,-0.42508 -0.17003,-0.72263 -0.80765,-0.72263 -1.10521,0 -2.55048,0.085 -3.44315,0.085 -0.34006,0 -0.51009,-0.085 -0.51009,-0.42508 0,-0.59511 1.99787,-11.56216 4.20829,-11.56216 1.91286,0 2.63549,1.74282 3.52816,1.74282 0.59511,0 0.72263,-2.08289 0.72263,-2.42295 0,-1.10521 -0.59511,-1.5728 -1.99787,-1.5728 -2.25292,0 -3.86823,1.31775 -5.356,3.40064 -2.46547,3.52816 -3.23061,7.60893 -3.65569,10.54198 -0.0425,0.29755 -0.17003,0.29755 -0.29756,0.29755 -0.93517,0 -3.06057,-0.085 -3.06057,-0.085 -0.97768,0 -1.10521,0.25504 -1.10521,1.0627 0,0.51009 0.12753,0.76514 1.0627,0.76514 l 2.59299,0 c 0.29755,0 0.42508,0.21254 0.42508,0.5526 0,0.085 -1.70032,12.2423 -1.70032,12.2423 -0.5526,3.95324 -0.63762,8.96918 -1.99787,8.96918 -0.21254,0 -1.10521,-0.5101 -1.27524,-1.53029 -0.0425,-0.42508 -0.34007,-0.59511 -0.55261,-0.59511 -0.85016,0 -1.23273,2.55048 -1.23273,2.89054 z"/>
	<path d="m 618.75199,652.81615 c 0,5.18598 3.01807,7.60893 6.50372,7.60893 6.24868,0 9.73433,-6.07864 9.73433,-11.39214 0,-3.99575 -1.95537,-7.52391 -6.20616,-7.52391 -6.46122,0 -10.03189,6.03614 -10.03189,11.30712 z m 3.27312,0.0425 c 0,-1.74283 0.42508,-3.27311 0.85016,-4.76089 0.97768,-3.44315 3.27311,-5.3135 5.31349,-5.3135 1.95537,0 3.65569,1.74283 3.65569,5.73858 0,3.52816 -1.5728,10.62699 -6.12115,10.62699 -1.99787,0 -3.69819,-1.99787 -3.69819,-6.29118 z"/>
	<path d="m 636.70962,647.41764 c 0,0.59511 0.34006,0.72264 0.5101,0.72264 0.21254,0 0.34006,-0.12753 0.46758,-0.25505 0.25505,-0.29756 0.59511,-2.84804 2.33794,-2.84804 0.76515,0 1.44527,0.76515 1.44527,2.89055 0,3.18809 -1.82784,9.43677 -1.82784,11.13708 0,1.0202 0.85016,1.10521 1.27524,1.10521 l 0.21254,0 c 1.53029,0 1.44527,0 2.38045,-7.22635 l 0.21253,-1.40277 c 0.21254,-1.78533 1.27524,-7.35387 3.1881,-7.35387 1.53029,0 1.36026,1.78533 2.29543,1.78533 0.76515,0 0.85016,-1.31775 0.93518,-1.6153 0.12752,-0.46759 0.46759,-1.02019 0.46759,-1.5728 0,-0.59511 -0.46759,-1.31774 -1.5728,-1.31774 -3.14559,0 -5.27099,4.37832 -5.56854,4.37832 -0.085,0 -0.12753,-0.0425 -1.19023,-2.80553 -0.25504,-0.68013 -0.68012,-1.48778 -1.57279,-1.48778 -0.38257,0 -3.99575,1.02019 -3.99575,5.8661 z"/>
	<path d="m 650.30088,653.75133 c 0,3.78321 1.31774,6.75877 6.71626,6.75877 3.69819,0 7.39638,-2.97556 7.39638,-3.95325 0,-0.25504 -0.17003,-0.42508 -0.51009,-0.42508 -0.46759,0 -2.16791,1.82785 -4.59086,1.82785 -4.20829,0 -6.12115,-2.1254 -6.12115,-5.3135 0,-1.10521 0.12752,-1.74283 0.72263,-1.74283 3.99575,-0.0425 6.29118,-0.97768 6.67376,-1.14771 0.80765,-0.34006 4.12327,-2.08289 4.12327,-5.14346 0,-1.87036 -1.70032,-3.14559 -3.69819,-3.14559 -2.38045,0 -4.33582,0.76514 -5.90861,2.25292 -2.93305,2.72051 -4.8034,6.37619 -4.8034,10.03188 z m 3.48565,-4.42083 c 0,-0.5526 0.97768,-3.27311 2.25292,-4.59086 1.10521,-1.14772 2.42296,-1.99788 3.48566,-1.99788 0.72263,0 2.25292,0.38258 2.25292,1.99788 0,2.678 -3.48565,5.44102 -7.60893,5.44102 -0.29755,0 -0.38257,-0.5526 -0.38257,-0.85016 z"/>
	<path d="m 666.46852,649.45802 c 0,4.71839 3.82572,3.6982 3.82572,4.42083 0,2.97556 0.42508,6.58874 2.59298,6.58874 4.08077,0 7.56642,-8.20404 7.77896,-8.20404 0.0425,0 0.12753,0.21254 0.12753,0.80765 0.085,5.90861 1.27523,7.35388 2.50797,7.35388 1.70031,0 5.44102,-2.1254 8.24654,-7.4814 1.27524,-2.42296 2.33794,-7.05633 2.33794,-9.26674 0,-1.65781 -0.68013,-1.91286 -1.23273,-1.91286 -0.68013,0 -1.6153,0.72264 -1.6153,1.40276 0,1.36026 0.80765,0.85016 0.80765,4.63337 0,2.46547 -3.23061,9.94687 -6.46121,9.94687 -1.10521,0 -1.48778,-0.85016 -1.78534,-2.1254 -0.29755,-1.44527 -0.42508,-2.76302 -0.42508,-4.03826 0,-3.91073 1.14772,-6.9288 1.14772,-8.67162 0,-0.63762 -0.25505,-1.0627 -1.23273,-1.0627 -1.19023,0 -1.23274,0.51009 -1.44528,1.95536 -0.5526,3.91074 -1.23273,6.33369 -1.82784,7.77896 -0.89267,2.08289 -3.14559,6.03613 -5.27099,6.03613 -0.80765,0 -1.65781,-1.27524 -1.65781,-2.59298 0,-4.2508 0.5101,-6.41871 0.5101,-9.90436 0,-1.27524 -0.42508,-3.35813 -1.78534,-3.35813 -1.74282,0 -5.14346,3.44315 -5.14346,7.69394 z m 1.40276,0.21254 c 0,-2.12539 1.70032,-4.20829 2.38045,-4.20829 0.46759,0 0.63762,0.59512 0.63762,0.93518 0,0.59511 -0.085,2.21041 -0.21254,3.31562 -0.21254,2.04038 -0.29756,2.55048 -0.97768,2.55048 -0.55261,0 -1.23274,-0.21254 -1.65782,-1.14772 -0.12752,-0.34006 -0.17003,-0.85015 -0.17003,-1.44527 z"/>
	<path d="m 696.12978,652.81615 c 0,5.18598 3.01807,7.60893 6.50372,7.60893 6.24868,0 9.73433,-6.07864 9.73433,-11.39214 0,-3.99575 -1.95537,-7.52391 -6.20616,-7.52391 -6.46122,0 -10.03189,6.03614 -10.03189,11.30712 z m 3.27312,0.0425 c 0,-1.74283 0.42508,-3.27311 0.85016,-4.76089 0.97768,-3.44315 3.27311,-5.3135 5.31349,-5.3135 1.95537,0 3.65569,1.74283 3.65569,5.73858 0,3.52816 -1.5728,10.62699 -6.12115,10.62699 -1.99787,0 -3.69819,-1.99787 -3.69819,-6.29118 z"/>
	<path d="m 714.08741,647.41764 c 0,0.59511 0.34006,0.72264 0.51009,0.72264 0.21254,0 0.34007,-0.12753 0.46759,-0.25505 0.25505,-0.29756 0.59511,-2.84804 2.33794,-2.84804 0.76514,0 1.44527,0.76515 1.44527,2.89055 0,3.18809 -1.82784,9.43677 -1.82784,11.13708 0,1.0202 0.85016,1.10521 1.27524,1.10521 l 0.21254,0 c 1.53028,0 1.44527,0 2.38044,-7.22635 l 0.21254,-1.40277 c 0.21254,-1.78533 1.27524,-7.35387 3.1881,-7.35387 1.53029,0 1.36026,1.78533 2.29543,1.78533 0.76514,0 0.85016,-1.31775 0.93518,-1.6153 0.12752,-0.46759 0.46758,-1.02019 0.46758,-1.5728 0,-0.59511 -0.46758,-1.31774 -1.57279,-1.31774 -3.14559,0 -5.27099,4.37832 -5.56854,4.37832 -0.085,0 -0.12753,-0.0425 -1.19023,-2.80553 -0.25505,-0.68013 -0.68012,-1.48778 -1.57279,-1.48778 -0.38257,0 -3.99575,1.02019 -3.99575,5.8661 z"/>
	<path d="m 727.20709,654.6865 c 0,3.1881 1.48778,5.65356 5.10096,5.65356 4.20829,0 6.37619,-4.76089 6.75877,-4.76089 0.59511,0 -0.38258,4.76089 2.59298,4.76089 2.76302,0 5.44102,-4.2933 5.44102,-5.18597 0,-0.17003 -0.12752,-0.38257 -0.46759,-0.38257 -0.68012,0 -1.65781,2.63549 -3.52816,2.63549 -0.97768,0 -1.1052,-0.89266 -1.1052,-1.82784 0,-1.27524 0.42508,-3.95324 0.89266,-7.18385 2.38045,-17.38575 2.80553,-18.74601 2.80553,-19.85122 0,-0.38257 -0.29756,-0.72263 -0.68013,-0.72263 -1.14771,0 -0.89267,0.085 -3.27311,0.68013 -1.19023,0.29755 -2.678,0.12752 -2.678,0.85015 0,0.29756 0.25504,0.46759 0.68012,0.46759 0.0425,0 1.02019,-0.0425 1.48778,-0.0425 0.63762,0 1.23273,0.42508 1.23273,1.0627 0,0.29756 -1.40276,11.47715 -1.53028,11.47715 -1.19023,0 -2.04039,-0.5526 -3.14559,-0.5526 -5.05845,0 -10.58449,6.33369 -10.58449,12.92242 z m 2.97556,-1.19022 c 0,-4.46334 3.48565,-10.83953 7.39639,-10.83953 1.14771,0 2.84803,0.5526 2.84803,1.70032 0,1.70032 -0.63762,9.18172 -2.33794,11.30712 -1.1052,1.40276 -2.76302,2.21041 -4.2933,2.21041 -2.59299,0 -3.61318,-1.91286 -3.61318,-4.37832 z"/>
	<path d="m 758.40927,656.98193 c 0,2.46547 2.678,3.57067 5.18597,3.57067 6.58873,0 11.60467,-7.60892 11.60467,-13.39001 0,-2.76301 -1.48777,-5.39851 -4.67587,-5.39851 -4.88842,0 -6.88629,3.95324 -7.48141,3.95324 -0.085,0 -0.21253,-0.34006 -0.21253,-0.63762 0,-3.06057 2.72051,-15.72795 2.72051,-16.49309 0,-0.46759 -0.34007,-0.76514 -0.80766,-0.76514 -0.25504,0 -1.02019,0.25505 -2.678,0.46759 -1.95536,0.25504 -3.14559,0.21254 -3.14559,1.06269 0,0.59512 0.34007,0.59512 0.80765,0.59512 0.63762,0 1.10521,-0.085 1.74283,-0.085 0.85016,0 1.0627,0.29756 1.0627,0.5101 0,1.02019 -0.25505,2.50797 -0.63762,4.33581 -0.63762,3.14559 -1.14772,7.26886 -1.91286,11.68969 -0.59511,3.44315 -1.57279,7.86397 -1.57279,10.58448 z m 2.80552,-0.51009 c 0,-0.42508 0.46759,-4.97343 1.70032,-8.33156 1.36026,-3.6982 4.12327,-4.12328 5.14347,-4.12328 2.33793,0 4.16578,1.95537 4.16578,4.33582 0,4.88841 -3.91074,11.00956 -7.73645,11.00956 -2.6355,0 -3.27312,-1.44527 -3.27312,-2.89054 z"/>
	<path d="m 776.84511,665.3135 c 0,1.95536 1.70032,2.50797 3.52816,2.50797 3.99575,0 6.71626,-4.84591 8.71413,-9.90436 2.50797,-6.33369 3.52816,-12.19979 3.52816,-14.11265 0,-1.31774 -0.72263,-2.25292 -1.65781,-2.25292 -1.02019,0 -1.44527,0.80765 -1.44527,1.5728 0,1.14771 1.0627,1.99787 1.0627,3.2306 0,2.84804 -0.93517,7.39639 -1.53028,7.39639 -0.46759,0 -4.50585,-12.07226 -8.62912,-12.07226 -2.59299,0 -3.44315,3.69819 -3.44315,5.48352 0,0.72264 0.17003,0.93518 0.42508,0.93518 1.27524,0 0.38257,-3.1881 2.84804,-3.1881 2.25292,0 6.92879,10.96706 6.92879,13.3475 0,1.61531 -2.80552,7.05633 -5.27098,7.05633 -1.95537,0 -1.99788,-1.40277 -3.6982,-1.40277 -0.72263,0 -1.36025,0.68013 -1.36025,1.40277 z"/>
	<path d="m 485.83114,720 9.73099,0 10.99415,-38.59649 -9.73099,0 -6.59649,26.47953 -0.23392,0 -7.01754,-26.47953 -6.64328,0 -7.01754,26.47953 -0.23392,0 -6.59649,-26.47953 -9.77778,0 10.99415,38.59649 9.77778,0 6.17544,-21.66082 L 485.83114,720 Z"/>
	<path d="m 528.97368,681.40351 -8.14035,0 L 505.25438,720 l 9.45029,0 2.85381,-7.7193 14.69005,0 2.85381,7.7193 9.45029,0 -15.57895,-38.59649 z m 0.2807,23.15789 -8.70175,0 4.30409,-11.22807 0.0936,0 4.30409,11.22807 z"/>
	<path d="m 559.80774,681.40351 -8.79532,0 0,38.59649 22.08187,0 0,-7.7193 -13.28655,0 0,-30.87719 z"/>
	<path d="m 577.51974,689.12281 9.16959,0 0,30.87719 8.79532,0 0,-30.87719 9.16959,0 0,-7.7193 -27.1345,0 0,7.7193 z"/>
	<path d="m 634.90351,681.40351 -22.08187,0 0,38.59649 22.08187,0 0,-7.7193 -13.28655,0 0,-7.76608 12.72515,0 0,-7.7193 -12.72515,0 0,-7.67251 13.28655,0 0,-7.7193 z"/>
	<path d="m 644.95979,681.40351 0,38.59649 8.79532,0 0,-15.25146 11.78948,15.25146 11.18129,0 -13.28655,-15.95322 c 4.72514,-1.49707 7.90643,-5.38011 7.90643,-11.18128 0,-7.57895 -5.4269,-11.46199 -12.5848,-11.46199 l -13.80117,0 z m 8.79532,17.12281 0,-10.10527 1.02924,0 c 3.32164,0 7.29825,0.23392 7.29825,5.05263 0,4.81872 -3.97661,5.05264 -7.29825,5.05264 l -1.02924,0 z"/>
	<path d="m 718.08187,681.40351 -8.79533,0 0,25.45029 c 0,3.88304 -1.91812,5.4269 -4.44444,5.4269 -2.24561,0 -5.00585,-2.61988 -5.00585,-2.61988 l -2.80702,7.34503 c 0,0 3.50878,3.6959 9.02924,3.6959 7.7193,0 12.0234,-4.02339 12.0234,-11.60233 l 0,-27.69591 z"/>
	<path d="m 750.29824,681.40351 -22.08187,0 0,38.59649 22.08187,0 0,-7.7193 -13.28655,0 0,-7.76608 12.72515,0 0,-7.7193 -12.72515,0 0,-7.67251 13.28655,0 0,-7.7193 z"/>
	<path d="m 760.35452,681.40351 0,38.59649 8.79532,0 0,-15.25146 11.78948,15.25146 11.18128,0 -13.28655,-15.95322 c 4.72515,-1.49707 7.90644,-5.38011 7.90644,-11.18128 0,-7.57895 -5.4269,-11.46199 -12.5848,-11.46199 l -13.80117,0 z m 8.79532,17.12281 0,-10.10527 1.02924,0 c 3.32164,0 7.29825,0.23392 7.29825,5.05263 0,4.81872 -3.97661,5.05264 -7.29825,5.05264 l -1.02924,0 z"/>
	<path d="m 798.88888,681.40351 0,38.59649 8.79533,0 0,-15.25146 11.78947,15.25146 11.18129,0 -13.28655,-15.95322 c 4.72514,-1.49707 7.90643,-5.38011 7.90643,-11.18128 0,-7.57895 -5.4269,-11.46199 -12.5848,-11.46199 l -13.80117,0 z m 8.79533,17.12281 0,-10.10527 1.02924,0 c 3.32163,0 7.29824,0.23392 7.29824,5.05263 0,4.81872 -3.97661,5.05264 -7.29824,5.05264 l -1.02924,0 z"/>
	<path d="m 835.69225,700.67836 c 0,11.27486 8.04679,20.02339 19.46199,20.02339 11.08772,0 19.41521,-8.74853 19.41521,-20.02339 0,-11.27485 -8.70176,-19.97661 -19.41521,-19.97661 -10.61988,0 -19.46199,8.70176 -19.46199,19.97661 z m 9.49708,0 c 0,-5.75438 3.18129,-11.50877 9.96491,-11.50877 6.83041,0 9.91813,5.75439 9.91813,11.50877 0,5.75439 -2.90058,11.50877 -9.91813,11.50877 -7.20468,0 -9.96491,-5.75438 -9.96491,-11.50877 z"/>
	<path d="m 892.24561,681.40351 -8.79532,0 0,38.59649 22.08187,0 0,-7.7193 -13.28655,0 0,-30.87719 z"/>
	<path d="m 914.85745,681.40351 0,38.59649 11.18129,0 c 10.61988,0 19.46199,-8.04678 19.46199,-19.32164 0,-11.22807 -8.88889,-19.27485 -19.46199,-19.27485 l -11.18129,0 z m 8.79532,30.73684 0,-22.87719 1.35673,0 c 6.54971,0 10.99415,5.00585 10.99415,11.46199 -0.0468,6.45614 -4.49123,11.4152 -10.99415,11.4152 l -1.35673,0 z"/>
</svg>
